<svg width="60" height="59" viewBox="0 0 60 59" fill="none" xmlns="http://www.w3.org/2000/svg">
<path d="M32.7783 16L33.418 18.3613L35.2324 16.7197L43.1152 9.59082L39.9062 19.7236L39.168 22.0566L41.5811 21.6572L52.0684 19.9219L43.8896 26.7109L42.0068 28.2734L44.2529 29.2422L54.0137 33.4521L43.4629 34.7422L41.0342 35.0391L42.4004 37.0684L48.334 45.8867L38.7617 41.2676L36.5586 40.2051L36.6104 42.6504L36.835 53.2783L31.2783 44.2158L30 42.1299L28.7217 44.2158L23.1641 53.2783L23.3896 42.6504L23.4414 40.2051L21.2383 41.2676L11.665 45.8867L17.5996 37.0684L18.9658 35.0391L16.5371 34.7422L5.98535 33.4521L15.7471 29.2422L17.9932 28.2734L16.1104 26.7109L7.93066 19.9219L18.4189 21.6572L20.832 22.0566L20.0938 19.7236L16.8838 9.59082L24.7676 16.7197L26.582 18.3613L27.2217 16L30 5.73926L32.7783 16Z" stroke="#EEDB6D" stroke-width="3"/>
</svg>
